<svg width="94" height="22" viewBox="0 0 94 22" fill="none" xmlns="http://www.w3.org/2000/svg">
<g id="&#208;&#187;&#208;&#190;&#208;&#179;&#208;&#190;">
<path id="Vector" d="M3.56591 21.145C2.57389 21.145 1.82094 21.0193 1.30705 20.7679C0.793169 20.5164 0.444622 20.1057 0.268114 19.5355C0.0893712 18.9653 0 18.2066 0 17.2594V4.23551C0 3.26803 0.0893712 2.50259 0.268114 1.93692C0.446856 1.37125 0.793169 0.964954 1.30705 0.718035C1.82094 0.471116 2.57389 0.347656 3.56591 0.347656H7.99649C10.0654 0.347656 11.8774 0.657427 13.4303 1.27472C14.9853 1.89427 16.1941 2.9403 17.061 4.41508C17.9279 5.88986 18.3591 7.91236 18.3591 10.4848C18.3591 13.0573 17.9256 15.1224 17.061 16.6847C16.1941 18.247 14.9853 19.3806 13.4303 20.0855C11.8752 20.7903 10.0654 21.145 7.99649 21.145H3.56591ZM6.30737 4.16368C5.67284 4.16368 5.23939 4.29836 5.00926 4.56997C4.77913 4.84158 4.66294 5.30399 4.66294 5.9617V15.5332C4.66294 16.1819 4.77913 16.6443 5.00926 16.9249C5.23939 17.2055 5.67284 17.3447 6.30737 17.3447H6.97095C9.03096 17.3447 10.6262 16.8374 11.7568 15.8227C12.8873 14.8081 13.4526 13.0483 13.4526 10.5432C13.4526 8.03806 13.1957 7.5734 12.6795 6.64858C12.1657 5.726 11.4216 5.07952 10.4497 4.71363C9.47782 4.3455 8.30929 4.16143 6.94191 4.16143H6.30737V4.16368Z" fill="#B0C536"/>
<path id="Vector_2" d="M25.5356 21.145C24.5436 21.145 23.7907 21.0193 23.2768 20.7679C22.7629 20.5164 22.4143 20.1057 22.2378 19.5355C22.0591 18.9653 21.9697 18.2066 21.9697 17.2594V4.23551C21.9697 3.26803 22.0591 2.50259 22.2378 1.93692C22.4166 1.37125 22.7629 0.964954 23.2768 0.718035C23.7907 0.471116 24.5436 0.347656 25.5356 0.347656H32.3189C32.549 0.347656 32.7233 0.385815 32.8395 0.464381C33.0897 0.639469 33.3489 0.845984 33.6193 1.08841C33.8896 1.33084 34.1734 1.62041 34.4705 1.95936C34.5666 2.08507 34.6158 2.18608 34.6158 2.26464C34.6158 2.34321 34.5666 2.44871 34.4705 2.55421C34.1711 2.89317 33.8874 3.18273 33.6193 3.42516C33.3489 3.66759 33.0897 3.87411 32.8395 4.0492C32.7054 4.12776 32.5312 4.16592 32.3189 4.16592H28.2771C27.6426 4.16592 27.2091 4.3006 26.979 4.57222C26.7489 4.84383 26.6327 5.30624 26.6327 5.96394V8.77657H31.814C32.0441 8.77657 32.2184 8.81473 32.3346 8.8933C32.5848 9.06839 32.844 9.2749 33.1143 9.51733C33.3847 9.75976 33.6684 10.0493 33.9656 10.3883C34.0617 10.514 34.1108 10.615 34.1108 10.6936C34.1108 10.7721 34.0617 10.8776 33.9656 10.9831C33.6662 11.3221 33.3824 11.6117 33.1143 11.8541C32.844 12.0965 32.5848 12.303 32.3346 12.4781C32.2005 12.5567 32.0262 12.5948 31.814 12.5948H26.6327V15.5242C26.6327 16.1729 26.7489 16.6353 26.979 16.9159C27.2091 17.1965 27.6426 17.3357 28.2771 17.3357H32.7948C33.0249 17.3357 33.1992 17.3738 33.3154 17.4524C33.5656 17.6275 33.8248 17.834 34.0952 18.0764C34.3655 18.3189 34.6493 18.6084 34.9464 18.9474C35.0425 19.0731 35.0917 19.1741 35.0917 19.2527C35.0917 19.3312 35.0425 19.4367 34.9464 19.5422C34.647 19.8812 34.3633 20.1708 34.0952 20.4132C33.8248 20.6556 33.5656 20.8621 33.3154 21.0372C33.1813 21.1158 33.0071 21.154 32.7948 21.154H25.5334L25.5356 21.145Z" fill="#B0C536"/>
<path id="Vector_3" d="M42.7843 20.3773C42.7843 20.6668 42.724 20.8689 42.6033 20.9789C42.4827 21.0911 42.2794 21.145 41.9889 21.145H38.9145C38.6263 21.145 38.4208 21.0889 38.3001 20.9789C38.1795 20.8689 38.1191 20.6668 38.1191 20.3773V4.23551C38.1191 3.26803 38.2085 2.50259 38.3873 1.93692C38.566 1.37125 38.9123 0.964954 39.4262 0.718035C39.9401 0.471116 40.693 0.347656 41.685 0.347656H45.5101C50.5328 0.347656 53.0441 2.28709 53.0441 6.16372C53.0441 10.0403 52.8475 8.30967 52.452 9.0639C52.0566 9.81812 51.5673 10.4062 50.9797 10.826C50.392 11.2458 49.8156 11.5645 49.2481 11.7755V11.8473C49.8938 12.2738 50.506 12.8305 51.0891 13.5219C51.6723 14.2133 52.1973 14.963 52.6688 15.7689C53.1402 16.577 53.5401 17.3738 53.8663 18.1617C54.1926 18.9496 54.4204 19.6522 54.5456 20.2718C54.6037 20.5613 54.6059 20.7791 54.5523 20.925C54.4986 21.0709 54.3333 21.1427 54.054 21.1427H50.7205C50.4702 21.1427 50.2513 21.0889 50.0636 20.9834C49.8759 20.8778 49.7061 20.6309 49.552 20.2448C48.8213 18.3974 47.979 16.8935 47.025 15.7262C46.0732 14.5612 45.1527 13.6252 44.2679 12.9203C43.7004 12.4669 43.4166 12.1414 43.4166 11.9484C43.4166 11.7553 43.5082 11.5802 43.6914 11.3109C43.8076 11.147 43.9752 10.9472 44.1964 10.716C44.4176 10.4848 44.6097 10.3097 44.7728 10.193C44.9359 10.0763 45.0677 10.0044 45.1705 9.97525C45.2711 9.94607 45.4275 9.9326 45.6397 9.9326C46.3525 9.9326 46.9468 9.68568 47.4227 9.19409C47.8986 8.70025 48.1377 7.92358 48.1377 6.85958C48.1377 5.79559 47.8852 5.11768 47.3802 4.64854C46.8753 4.17939 46.1804 3.94594 45.2934 3.94594H44.4265C43.792 3.94594 43.3585 4.08062 43.1284 4.35223C42.8983 4.62384 42.7821 5.08626 42.7821 5.74396V20.3773H42.7843Z" fill="#B0C536"/>
<path id="Vector_4" d="M65.9246 20.3776C65.9246 20.6671 65.8643 20.8692 65.7437 20.9792C65.623 21.0914 65.4197 21.1453 65.1292 21.1453H62.0549C61.7666 21.1453 61.5611 21.0891 61.4404 20.9792C61.3198 20.8692 61.2595 20.6671 61.2595 20.3776V4.16397H56.9585C56.7283 4.16397 56.5541 4.12581 56.4379 4.04724C56.1876 3.87216 55.9307 3.66564 55.6648 3.42321C55.4012 3.18078 55.1129 2.89121 54.8068 2.55226C54.7108 2.42656 54.6616 2.32554 54.6616 2.24698C54.6616 2.16841 54.7108 2.06291 54.8068 1.95741C55.1152 1.61846 55.4012 1.32889 55.6648 1.08646C55.9285 0.844031 56.1876 0.637517 56.4379 0.462429C56.5719 0.386108 56.7462 0.345703 56.9585 0.345703H70.239C70.4692 0.345703 70.6434 0.383864 70.7596 0.462429C71.0098 0.637517 71.269 0.844031 71.5394 1.08646C71.8097 1.32889 72.0935 1.61846 72.3906 1.95741C72.4867 2.08311 72.5359 2.18413 72.5359 2.26269C72.5359 2.34126 72.4867 2.44676 72.3906 2.55226C72.0912 2.89121 71.8075 3.18078 71.5394 3.42321C71.269 3.66564 71.0098 3.87216 70.7596 4.04724C70.6256 4.12581 70.4513 4.16397 70.239 4.16397H65.9224V20.3776H65.9246Z" fill="#B0C536"/>
<path id="Vector_5" d="M83.0012 21.5066C80.9993 21.5066 79.2566 21.1206 77.7752 20.3461C76.2939 19.5717 75.1455 18.4067 74.3322 16.8511C73.5189 15.2955 73.1123 13.3516 73.1123 11.0216C73.1123 7.31778 74.0127 4.55678 75.8113 2.73407C77.6099 0.911355 80.1168 0 83.3319 0C86.547 0 88.7255 0.891152 90.4771 2.6757C92.2288 4.46025 93.1046 7.10229 93.1046 10.6018C93.1046 14.1013 92.6958 15.1182 91.878 16.7299C91.0603 18.3393 89.8962 19.538 88.3858 20.3259C86.8755 21.1138 85.0813 21.5089 83.0012 21.5089V21.5066ZM83.0884 17.5919C84.8199 17.5919 86.1046 16.9678 86.9425 15.722C87.7804 14.4762 88.1982 12.8555 88.1982 10.8644C88.1982 8.87337 87.8027 6.81721 87.014 5.65893C86.2253 4.49841 84.954 3.91928 83.2023 3.91928C79.7481 3.91928 78.021 6.20665 78.021 10.7791C78.021 15.3516 78.4366 14.465 79.27 15.7175C80.1011 16.9701 81.3747 17.5963 83.0884 17.5963V17.5919Z" fill="#B0C536"/>
</g>
</svg>
