<svg width="27" height="26" viewBox="0 0 27 26" fill="none" xmlns="http://www.w3.org/2000/svg">
<path d="M15.029 16.25L11.9193 11.8446C11.424 11.143 11.1764 10.7922 10.8719 10.6739C10.6056 10.5705 10.3092 10.5765 10.0473 10.6906C9.74772 10.821 9.51446 11.1815 9.04794 11.9025L5.11085 17.9871C5.00749 18.1468 4.95582 18.2267 4.91922 18.3127C4.88674 18.3891 4.86314 18.469 4.84889 18.5508C4.83285 18.6429 4.83282 18.738 4.83277 18.9283L4.83203 21.6666H22.1662L22.1662 18.9154C22.1662 18.7299 22.1662 18.6371 22.151 18.5471C22.1374 18.4672 22.1149 18.3891 22.084 18.3142C22.0491 18.2299 21.9998 18.1513 21.9012 17.9942L20.8545 16.3261C19.9296 14.8519 19.4671 14.1149 18.8661 13.8462C18.3407 13.6112 17.7434 13.595 17.2059 13.8011C16.5912 14.0368 16.0895 14.7477 15.0859 16.1694L15.029 16.25ZM15.029 16.25L18.8661 21.6666M22.1662 6.49998C22.1662 7.6966 21.1962 8.66665 19.9996 8.66665C18.803 8.66665 17.8329 7.6966 17.8329 6.49998C17.8329 5.30336 18.803 4.33331 19.9996 4.33331C21.1962 4.33331 22.1662 5.30336 22.1662 6.49998Z" stroke="#262F0E" stroke-width="1.7" stroke-linecap="round" stroke-linejoin="round"/>
</svg>
