<svg width="22" height="22" viewBox="0 0 22 22" fill="none" xmlns="http://www.w3.org/2000/svg">
<path d="M12.4422 20.2357C12.4422 20.2357 12.3862 18.8365 12.4422 17.2203M12.4422 17.2203C12.4422 11.7926 12.4422 9.98342 14.8545 7.50935M12.4422 17.2203C12.4422 15.4111 12.4422 11.1896 8.22072 9.66533M17.5613 10.5865C20.2691 9.02338 20.8853 6.09777 20.8853 2.74654C20.8853 2.18032 20.8332 1.62626 20.7337 1.08886C20.1963 0.989338 19.6423 0.937317 19.076 0.937317C15.1905 0.937317 11.8771 2.18093 10.5961 5.62018C9.00017 4.20731 6.90139 3.34961 4.60228 3.34961C3.58107 3.34961 2.59937 3.51883 1.68371 3.83076C1.61994 4.26421 1.58691 4.70766 1.58691 5.15883C1.58691 9.09756 2.89802 12.4484 6.4115 13.6902" stroke="#262F0E" stroke-width="1.68861" stroke-linecap="round" stroke-linejoin="round"/>
</svg>
