<svg width="22" height="22" viewBox="0 0 22 22" fill="none" xmlns="http://www.w3.org/2000/svg">
<path d="M9.88766 11.9341L5.87904 7.92545L2.67214 11.1323C0.458244 13.3462 0.458244 16.9357 2.67214 19.1496C4.88604 21.3635 8.47548 21.3635 10.6894 19.1496L13.8963 15.9427L9.88766 11.9341ZM9.88766 11.9341L6.68076 15.141M9.88766 11.9341L15.4926 6.32912M15.4997 6.322L15.4926 6.32912M15.4926 6.32912L16.192 7.02855C17.1341 7.97061 18.6615 7.97061 19.6035 7.02855L20.3101 6.322L15.4997 1.51166L14.7932 2.2182C13.8511 3.16026 13.8511 4.68764 14.7932 5.6297L15.4855 6.322" stroke="#262F0E" stroke-width="1.68861" stroke-linecap="round" stroke-linejoin="round"/>
</svg>
